<?xml version="1.0" encoding="utf-8"?>
<!-- Generator: Adobe Illustrator 19.0.0, SVG Export Plug-In . SVG Version: 6.00 Build 0)  -->
<svg version="1.1" xmlns="http://www.w3.org/2000/svg" xmlns:xlink="http://www.w3.org/1999/xlink" x="0px" y="0px"
	 viewBox="0 0 290 230" style="enable-background:new 0 0 290 230;" xml:space="preserve">
<style type="text/css">
	.st0{fill:#595757;}
	.st1{fill:none;stroke:#595757;stroke-width:4;stroke-miterlimit:10;}
</style>
<g id="圖層_2">
</g>
<g id="圖層_1">
	<g id="XMLID_1_">
		<g id="XMLID_84_">
			<path id="XMLID_88_" class="st0" d="M119.1,91.1c21.5-0.5,43-0.9,64.6-1.4c3.2-0.1,3.2-5.1,0-5c-21.5,0.5-43,0.9-64.6,1.4
				C115.8,86.2,115.8,91.2,119.1,91.1L119.1,91.1z"/>
		</g>
	</g>
	<g id="XMLID_2_">
		<g id="XMLID_78_">
			<path id="XMLID_82_" class="st0" d="M118.1,87c-7.5-3.2-9-14.6-7.4-21.6c1.6-6.8,5.9-12.7,9.8-18.3c8.6-12.2,21.1-17.4,35.9-16.5
				c6,0.4,12.2,1,17.4,4.2c5.1,3.1,7.7,8.4,10.3,13.5c3,5.9,5.4,12.2,6.3,18.8c0.5,3.7,0.6,7.6-0.1,11.3c-0.8,4-1.5,6.9-6.2,6.7
				c-3.2-0.2-3.2,4.8,0,5c14.2,0.8,12.6-19.2,10.4-28.4c-2.5-10.8-8.3-25.1-18.1-31.2c-9.7-5.9-24.9-6.5-35.6-3.7
				C126.2,30.6,117,41.7,110,54.2c-6.5,11.5-7.9,31.4,6.8,37.6C119.7,93.1,121,88.2,118.1,87L118.1,87z"/>
		</g>
	</g>
	<g id="XMLID_3_">
		<g id="XMLID_72_">
			<path id="XMLID_76_" class="st0" d="M118.1,90.5c-1.3,10.3-1.1,20.8,7.8,27.7c8.6,6.6,20.3,7.1,30.6,5.8
				c9.1-1.1,18.6-4.5,24.4-12c5.4-7,6.9-16.5,2.5-24.4c-1.6-2.8-5.9-0.3-4.3,2.5c3.9,7,1.4,15.5-4,20.9c-5.5,5.5-13.7,7.6-21.2,8.3
				c-8.1,0.7-17.4,0.4-24.2-4.5c-8.2-5.8-7.7-15.3-6.6-24.2C123.5,87.4,118.5,87.4,118.1,90.5L118.1,90.5z"/>
		</g>
	</g>
	<g id="XMLID_4_">
		<g id="XMLID_66_">
			<path id="XMLID_70_" class="st0" d="M139.6,100.6c3.2,0,3.2-5,0-5C136.4,95.6,136.4,100.6,139.6,100.6L139.6,100.6z"/>
		</g>
	</g>
	<g id="XMLID_5_">
		<g id="XMLID_60_">
			<path id="XMLID_64_" class="st0" d="M163.7,99.9c3.2,0,3.2-5,0-5C160.5,94.9,160.4,99.9,163.7,99.9L163.7,99.9z"/>
		</g>
	</g>
	<g id="XMLID_6_">
		<g id="XMLID_54_">
			<path id="XMLID_58_" class="st0" d="M149.8,99c-0.1,2.7,0,5.3,0.4,7.9c0.2,1.3,1.9,2.1,3.1,1.7c1.4-0.4,1.9-1.7,1.7-3.1
				c-0.3-2.2-0.4-4.4-0.2-6.6C155,95.8,150,95.8,149.8,99L149.8,99z"/>
		</g>
	</g>
	<g id="XMLID_7_">
		<g id="XMLID_48_">
			<path id="XMLID_52_" class="st0" d="M105.4,150c0.9-0.1,2-0.2,2.9-0.1c1.7,0.3,1.6-0.1,0.5,1.8c-1.1,2-2.5,3.9-3.6,5.9
				c-2,3.6-3.6,7.4-4.6,11.4c-0.5,1.9,1.2,3.5,3.1,3.1c3.9-0.8,7.6-2.2,11.1-4.1c2.8-1.6,0.3-5.9-2.5-4.3c-3.2,1.8-6.4,2.9-9.9,3.6
				c1,1,2.1,2.1,3.1,3.1c0.9-3.9,2.5-7.5,4.4-10.9c1.5-2.6,3.8-5.3,4.6-8.2c1.8-6.2-4.7-6.4-9.2-6.2
				C102.2,145.1,102.2,150.1,105.4,150L105.4,150z"/>
		</g>
	</g>
	<g id="XMLID_9_">
		<g id="XMLID_42_">
			<path id="XMLID_46_" class="st0" d="M106.1,134.7c1.2,0,2.3,0,3.5,0c1.3,0,2.6-1.1,2.5-2.5c-0.1-1.4-1.1-2.5-2.5-2.5
				c-1.2,0-2.3,0-3.5,0c-1.3,0-2.6,1.1-2.5,2.5C103.6,133.6,104.7,134.7,106.1,134.7L106.1,134.7z"/>
		</g>
	</g>
	<g id="XMLID_10_">
		<g id="XMLID_36_">
			<path id="XMLID_40_" class="st0" d="M120.1,146.2c-0.1,6.9-0.1,13.9,0.2,20.8c0.1,3.3,4.6,3.1,5,0c1-7.5,5.7-19.9,14.4-21.3
				c3.2-0.5,1.8-5.3-1.3-4.8c-11.1,1.7-16.8,16.4-18,26.1c1.7,0,3.3,0,5,0c-0.3-6.9-0.4-13.9-0.2-20.8
				C125.1,142.9,120.1,142.9,120.1,146.2L120.1,146.2z"/>
		</g>
	</g>
	<g id="XMLID_11_">
		<g id="XMLID_30_">
			<path id="XMLID_34_" class="st0" d="M141.8,162c5.3-0.4,13.9-2.6,12.7-9.7c-0.9-5.6-8-7.4-12-3.7c-4.2,3.9-4.5,13.4-2.2,18.3
				c2.7,5.8,10.1,5.4,13.3,0.4c1.7-2.7-2.6-5.3-4.3-2.5c-1.2,1.9-3.3,1.5-4.6-0.2c-0.6-0.8-0.4-2.7-0.5-3.7c-0.1-2-0.2-4.3,0.4-6.2
				c0.3-0.9,0.8-2.3,1.7-2.8c1.2-0.7,3.5,0.4,3.2,2c-0.4,2.3-6,3-7.8,3.1C138.7,157.3,138.6,162.3,141.8,162L141.8,162z"/>
		</g>
	</g>
	<g id="XMLID_18_">
		<g id="XMLID_24_">
			<path id="XMLID_28_" class="st0" d="M157.1,148.4c0,4.5,0,9,0,13.5c0,2.8,4.2,3.4,4.9,0.7c0.3-1.3,3.8-12,6.4-11
				c-0.6-0.6-1.2-1.2-1.7-1.7c1.6,3.9,1.6,8.7,5.8,11.1c4,2.3,8.7,0.6,11.9-2.1c4-3.4,14.6-17,3.1-18.1c-9-0.8-9.2,12.2-6.1,17.6
				c3.9,7,13.9,9,19.2,2.4c2-2.5-1.5-6-3.5-3.5c-5.5,6.7-13.3-0.7-12.5-7.5c0.3-2.8,2.2-3.7,1.9-0.7c-0.1,1.3-2.2,2.9-3.2,4
				c-1.5,1.6-3.9,4.3-6.4,4c-3.6-0.3-3.8-3.7-4.5-6c-0.9-3.3-3-6.2-6.8-3.9c-4.5,2.6-7,9.5-8.2,14.2c1.6,0.2,3.3,0.4,4.9,0.7
				c0-4.5,0-9,0-13.5C162.1,145.2,157.1,145.2,157.1,148.4L157.1,148.4z"/>
		</g>
	</g>
	<circle id="XMLID_8_" class="st1" cx="150.2" cy="105.4" r="97.8"/>
</g>
</svg>
